<!DOCTYPE svg PUBLIC "-//W3C//DTD SVG 20010904//EN" "http://www.w3.org/TR/2001/REC-SVG-20010904/DTD/svg10.dtd">
<svg version="1.0" xmlns="http://www.w3.org/2000/svg" width="3508px" height="2481px" viewBox="0 0 12000 8490" preserveAspectRatio="xMidYMid meet">
<g id="layer101" fill="#202731" stroke="none">
 <path d="M0 4245 l0 -4245 6000 0 6000 0 0 4245 0 4245 -6000 0 -6000 0 0 -4245z"/>
 </g>
<g id="layer102" fill="#eeeeee" stroke="none">
 <path d="M2958 6769 c-1013 -78 -1862 -828 -2063 -1821 -82 -410 -49 -866 91 -1247 258 -701 855 -1243 1569 -1426 229 -59 323 -70 585 -69 194 0 257 4 360 22 488 84 901 295 1241 632 374 371 595 821 665 1350 23 175 15 495 -16 670 -61 348 -202 677 -410 962 -97 133 -346 384 -479 482 -357 264 -756 411 -1211 446 -149 11 -176 11 -332 -1z m494 -154 c565 -88 1061 -384 1404 -837 280 -372 426 -809 427 -1283 1 -484 -146 -926 -434 -1307 -78 -103 -260 -290 -359 -371 -315 -254 -703 -417 -1110 -467 -123 -15 -392 -12 -522 5 -455 60 -872 259 -1202 575 -372 356 -598 810 -657 1319 -15 137 -7 475 16 596 84 456 279 837 590 1150 371 375 832 590 1365 639 86 8 386 -4 482 -19z"/>
 <path d="M2051 4443 l1 -798 119 360 119 360 0 438 0 437 -120 0 -120 0 1 -797z"/>
 <path d="M2672 5223 c-12 -23 -9 -15 -321 -999 -144 -452 -261 -829 -261 -838 0 -14 14 -16 99 -16 67 0 102 4 109 13 6 7 65 186 132 397 393 1240 457 1446 453 1453 -2 4 -49 7 -103 7 -84 0 -101 -3 -108 -17z"/>
 <path d="M3225 5228 c-3 -7 -6 -287 -8 -622 l-2 -608 -145 447 c-80 246 -149 447 -155 447 -5 0 -31 -64 -57 -142 l-47 -143 190 -601 c105 -331 195 -609 201 -618 7 -16 25 -18 127 -18 88 0 121 4 130 14 8 10 10 261 9 932 l-3 919 -118 3 c-88 2 -119 -1 -122 -10z"/>
 <path d="M3740 5135 l0 -105 90 0 90 0 0 -725 0 -725 -90 0 -91 0 3 -102 3 -103 300 0 300 0 3 103 3 102 -91 0 -90 0 0 725 0 724 88 3 87 3 0 100 0 100 -302 3 -303 2 0 -105z"/>
 <path d="M6719 4606 c-75 -20 -144 -80 -174 -153 -22 -51 -19 -149 6 -203 70 -154 247 -202 389 -104 l50 34 0 -40 c0 -38 2 -40 30 -40 l30 0 0 250 0 250 -30 0 c-28 0 -30 -3 -30 -36 l0 -35 -43 31 c-44 31 -123 61 -161 59 -12 0 -42 -6 -67 -13z m173 -86 c62 -42 83 -84 83 -165 0 -81 -21 -123 -83 -166 -30 -20 -48 -24 -108 -24 -65 0 -76 3 -111 31 -158 125 -71 363 129 351 38 -2 67 -11 90 -27z"/>
 <path d="M8077 4606 c-187 -70 -234 -299 -90 -438 51 -49 99 -68 176 -68 179 0 298 166 245 342 -15 50 -79 123 -131 150 -52 26 -149 33 -200 14z m166 -70 c43 -17 93 -76 108 -125 47 -156 -118 -300 -266 -232 -147 66 -157 277 -17 351 44 23 128 26 175 6z"/>
 <path d="M9183 4606 c-89 -28 -166 -122 -179 -218 -14 -101 53 -220 150 -268 83 -40 236 -16 286 45 13 16 16 0 20 -166 l5 -184 33 -3 32 -3 0 400 0 401 -35 0 c-33 0 -35 -2 -35 -35 l0 -35 -47 30 c-80 51 -148 61 -230 36z m160 -69 c45 -19 105 -89 113 -132 17 -91 -26 -182 -106 -222 -83 -43 -182 -19 -244 60 -42 52 -48 136 -16 203 43 89 158 130 253 91z"/>
 <path d="M10239 4606 c-75 -20 -144 -80 -174 -153 -22 -51 -19 -149 6 -203 70 -154 247 -202 389 -104 l50 34 0 -40 c0 -38 2 -40 30 -40 l30 0 0 250 0 250 -30 0 c-28 0 -30 -3 -30 -36 l0 -35 -43 31 c-44 31 -123 61 -161 59 -12 0 -42 -6 -67 -13z m173 -86 c62 -42 83 -84 83 -165 0 -81 -21 -123 -83 -166 -30 -20 -48 -24 -108 -24 -65 0 -76 3 -111 31 -158 125 -71 363 129 351 38 -2 67 -11 90 -27z"/>
 <path d="M5800 4210 l0 -400 34 0 33 0 129 305 c71 168 132 305 135 305 4 0 64 -137 135 -305 l128 -305 33 0 33 0 0 400 0 400 -30 0 -30 0 0 -301 c0 -227 -3 -300 -12 -297 -6 2 -57 113 -112 246 l-101 243 -44 -3 -44 -3 -99 -235 c-54 -129 -103 -239 -108 -244 -7 -7 -10 94 -10 292 l0 302 -35 0 -35 0 0 -400z"/>
 <path d="M7440 4210 l0 -400 30 0 30 0 0 236 0 236 71 -63 c135 -121 134 -120 181 -117 l43 3 -118 105 c-64 57 -116 108 -115 112 2 4 61 69 133 145 l130 138 -40 3 c-40 4 -41 2 -162 -125 l-122 -128 -1 128 0 127 -30 0 -30 0 0 -400z"/>
 <path d="M8870 4210 l0 -400 35 0 35 0 0 400 0 400 -35 0 -35 0 0 -400z"/>
 <path d="M9590 4573 c1 -34 16 -56 154 -218 l153 -180 -153 -3 -154 -3 0 -29 0 -30 195 0 195 0 0 33 c0 28 -23 60 -151 213 l-151 179 151 3 151 3 0 34 0 35 -195 0 -195 0 0 -37z"/>
 <path d="M7110 4350 l0 -250 35 0 c34 0 35 1 35 42 l0 41 23 -20 c29 -27 93 -58 135 -66 31 -6 32 -5 32 27 0 30 -3 34 -34 40 -50 9 -110 58 -135 108 -18 39 -21 62 -21 186 l0 142 -35 0 -35 0 0 -250z"/>
 <path d="M10630 4350 l0 -250 35 0 c33 0 35 2 35 32 0 29 1 30 18 16 89 -79 241 -67 317 24 50 59 55 84 55 263 l0 165 -30 0 -30 0 0 -153 c0 -139 -2 -157 -22 -197 -32 -61 -66 -83 -135 -88 -48 -3 -64 0 -92 20 -72 49 -76 61 -79 249 l-3 169 -35 0 -34 0 0 -250z"/>
 </g>

</svg>