<!DOCTYPE svg PUBLIC "-//W3C//DTD SVG 20010904//EN" "http://www.w3.org/TR/2001/REC-SVG-20010904/DTD/svg10.dtd">
<svg version="1.0" xmlns="http://www.w3.org/2000/svg" width="3508px" height="2481px" viewBox="0 0 12000 8490" preserveAspectRatio="xMidYMid meet">
<g id="layer101" fill="#393d46" stroke="none">
 <path d="M0 4245 l0 -4245 6000 0 6000 0 0 4245 0 4245 -6000 0 -6000 0 0 -4245z"/>
 </g>
<g id="layer102" fill="#eeeeee" stroke="none">
 <path d="M0 4245 l0 -4245 6000 0 6000 0 0 4245 0 4245 -6000 0 -6000 0 0 -4245z m3290 2525 c455 -35 854 -182 1211 -446 129 -95 372 -337 466 -464 302 -407 453 -864 453 -1370 0 -365 -73 -684 -229 -1005 -118 -240 -255 -432 -450 -625 -340 -337 -753 -548 -1241 -632 -171 -30 -539 -32 -705 -5 -497 83 -922 297 -1263 635 -354 351 -570 768 -653 1257 -26 154 -35 431 -20 590 42 427 205 842 463 1177 395 512 995 838 1636 887 156 12 183 12 332 1z m3565 -2165 c27 -8 68 -28 92 -45 l43 -31 0 35 c0 33 2 36 30 36 l30 0 0 -250 0 -250 -30 0 c-28 0 -30 2 -30 40 l0 40 -50 -34 c-142 -98 -319 -50 -389 104 -25 54 -28 152 -6 203 30 73 99 133 174 153 61 17 79 17 136 -1z m1422 -13 c52 -27 116 -100 131 -150 53 -176 -66 -342 -245 -342 -77 0 -125 19 -176 68 -144 139 -97 368 90 438 51 19 148 12 200 -14z m1053 18 c20 -5 57 -23 83 -40 l47 -30 0 35 c0 33 2 35 35 35 l35 0 0 -401 0 -400 -32 3 -33 3 -5 184 c-4 166 -7 182 -20 166 -50 -61 -203 -85 -286 -45 -63 31 -120 98 -140 166 -56 192 125 377 316 324z m1045 -5 c27 -8 68 -28 92 -45 l43 -31 0 35 c0 33 2 36 30 36 l30 0 0 -250 0 -250 -30 0 c-28 0 -30 2 -30 40 l0 40 -50 -34 c-142 -98 -319 -50 -389 104 -25 54 -28 152 -6 203 30 73 99 133 174 153 61 17 79 17 136 -1z m-4505 -297 c0 -198 3 -299 10 -292 5 5 54 115 108 244 l99 235 44 3 44 3 101 -243 c55 -133 106 -244 112 -246 9 -3 12 70 12 297 l0 301 30 0 30 0 0 -400 0 -400 -33 0 -33 0 -128 305 c-71 168 -131 305 -135 305 -3 0 -64 -137 -135 -305 l-129 -305 -33 0 -34 0 0 400 0 400 35 0 35 0 0 -302z m1630 175 l1 -128 122 128 c121 127 122 129 162 125 l40 -3 -130 -138 c-72 -76 -131 -141 -133 -145 -1 -4 51 -55 115 -112 l118 -105 -43 -3 c-47 -3 -46 -4 -181 117 l-71 63 0 -236 0 -236 -30 0 -30 0 0 400 0 400 30 0 30 0 0 -127z m1440 -273 l0 -400 -35 0 -35 0 0 400 0 400 35 0 35 0 0 -400z m1040 365 l0 -34 -152 -3 -151 -3 151 -179 c130 -153 152 -184 152 -213 l0 -33 -195 0 -195 0 0 30 0 29 154 3 153 3 -153 180 c-138 162 -153 184 -154 218 l0 37 195 0 195 0 0 -35z m-2800 -117 c0 -124 3 -147 21 -186 25 -50 85 -99 135 -108 31 -6 34 -10 34 -40 0 -32 -1 -33 -32 -27 -42 8 -106 39 -135 66 l-23 20 0 -41 c0 -41 -1 -42 -35 -42 l-35 0 0 250 0 250 35 0 35 0 0 -142z m3522 -27 c3 -154 5 -172 24 -198 37 -49 82 -73 139 -73 66 0 112 29 143 90 20 40 22 58 22 197 l0 153 30 0 30 0 0 -165 c0 -179 -5 -204 -55 -263 -76 -91 -228 -103 -317 -24 -17 14 -18 13 -18 -16 0 -30 -2 -32 -35 -32 l-35 0 0 250 0 250 34 0 35 0 3 -169z"/>
 <path d="M2970 6634 c-851 -78 -1558 -614 -1853 -1404 -81 -218 -117 -415 -124 -676 -10 -385 52 -681 211 -1009 315 -648 938 -1096 1654 -1190 130 -17 399 -20 522 -5 407 50 795 213 1110 467 99 81 281 268 359 371 288 381 435 823 434 1307 -1 474 -147 911 -427 1283 -343 453 -839 749 -1404 837 -96 15 -396 27 -482 19z m-680 -1831 l0 -438 -119 -360 -119 -360 -1 798 -1 797 120 0 120 0 0 -437z m593 430 c3 -5 -103 -348 -234 -763 -132 -415 -262 -827 -289 -914 -28 -88 -56 -166 -62 -173 -7 -9 -40 -13 -109 -13 -85 0 -99 2 -99 16 0 9 103 342 230 740 126 397 255 803 286 901 31 98 60 186 65 196 8 14 25 17 109 17 54 0 101 -3 103 -7z m585 -917 c1 -671 -1 -922 -9 -932 -9 -10 -42 -14 -130 -14 -102 0 -120 2 -127 18 -6 9 -96 287 -201 618 l-190 601 47 143 c26 78 52 142 57 142 6 0 75 -201 155 -447 l145 -447 2 608 c2 335 5 615 8 622 3 9 34 12 122 10 l118 -3 3 -919z m877 819 l0 -100 -87 -3 -88 -3 0 -724 0 -725 90 0 91 0 -3 -102 -3 -103 -300 0 -300 0 -3 103 -3 102 91 0 90 0 0 725 0 725 -90 0 -90 0 0 105 0 105 303 -2 302 -3 0 -100z"/>
 <path d="M6705 4532 c-137 -65 -153 -240 -32 -336 35 -28 46 -31 111 -31 60 0 78 4 108 24 62 43 83 85 83 166 0 81 -21 123 -83 165 -46 32 -132 38 -187 12z"/>
 <path d="M8068 4530 c-76 -41 -112 -126 -94 -225 9 -45 59 -103 111 -126 148 -68 313 76 266 232 -15 49 -65 108 -108 125 -47 20 -131 17 -175 -6z"/>
 <path d="M9158 4521 c-63 -40 -92 -101 -86 -181 5 -72 40 -123 108 -157 145 -74 307 57 276 222 -8 43 -68 113 -113 132 -57 23 -133 17 -185 -16z"/>
 <path d="M10225 4532 c-137 -65 -153 -240 -32 -336 35 -28 46 -31 111 -31 60 0 78 4 108 24 62 43 83 85 83 166 0 81 -21 123 -83 165 -46 32 -132 38 -187 12z"/>
 </g>

</svg>